<svg xmlns="http://www.w3.org/2000/svg" xmlns:xlink="http://www.w3.org/1999/xlink" width="500" zoomAndPan="magnify" viewBox="0 0 375 374.999991" height="500" preserveAspectRatio="xMidYMid meet" version="1.0"><defs><g/><clipPath id="b2862a64cb"><path d="M 67 15.253906 L 308 15.253906 L 308 359.503906 L 67 359.503906 Z M 67 15.253906 " clip-rule="nonzero"/></clipPath></defs><path fill="#000000" d="M 307.519531 208.894531 L 307.519531 144.347656 L 189.136719 144.347656 L 189.136719 208.894531 L 307.519531 208.894531 " fill-opacity="1" fill-rule="nonzero"/><g clip-path="url(#b2862a64cb)"><path fill="#000000" d="M 67.167969 359.503906 L 67.167969 15.253906 L 307.519531 15.253906 L 307.519531 79.800781 L 131.738281 79.800781 L 131.738281 359.503906 L 67.167969 359.503906 " fill-opacity="1" fill-rule="nonzero"/></g><g fill="#000000" fill-opacity="1"><g transform="translate(94.880981, 328.74997)"><g><path d="M 2.28125 -2.796875 C 2.28125 -3.890625 2.570312 -4.710938 3.15625 -5.265625 C 3.75 -5.828125 4.601562 -6.109375 5.71875 -6.109375 C 6.800781 -6.109375 7.640625 -5.820312 8.234375 -5.25 C 8.828125 -4.675781 9.125 -3.859375 9.125 -2.796875 C 9.125 -1.765625 8.820312 -0.953125 8.21875 -0.359375 C 7.625 0.234375 6.789062 0.53125 5.71875 0.53125 C 4.625 0.53125 3.773438 0.238281 3.171875 -0.34375 C 2.578125 -0.925781 2.28125 -1.742188 2.28125 -2.796875 Z M 2.28125 -2.796875 "/></g></g></g></svg>